HIERARCHY
ROOT Hips
{
  OFFSET 0.0 0.0 0.0
  CHANNELS 6 Xposition Yposition Zposition Zrotation Yrotation Xrotation
  JOINT LHipJoint
  {
    OFFSET 0.0 0.0 0.0
    CHANNELS 3 Zrotation Yrotation Xrotation
    JOINT LeftUpLeg
    {
      OFFSET 1.363059998 -1.794630051 0.839290023
      CHANNELS 3 Zrotation Yrotation Xrotation
      JOINT LeftLeg
      {
        OFFSET 2.448110104 -6.726130009 0.0
        CHANNELS 3 Zrotation Yrotation Xrotation
        JOINT LeftFoot
        {
          OFFSET 2.562200069 -7.039589882 0.0
          CHANNELS 3 Zrotation Yrotation Xrotation
          JOINT LeftToeBase
          {
            OFFSET 0.157639995 -0.433109999 2.322550058
            CHANNELS 3 Zrotation Yrotation Xrotation
            End Site
            {
              OFFSET 0.0 -0.0 1.189659953
            }
          }
        }
      }
    }
  }
  JOINT RHipJoint
  {
    OFFSET 0.0 0.0 0.0
    CHANNELS 3 Zrotation Yrotation Xrotation
    JOINT RightUpLeg
    {
      OFFSET -1.305520058 -1.794630051 0.839290023
      CHANNELS 3 Zrotation Yrotation Xrotation
      JOINT RightLeg
      {
        OFFSET -2.54253006 -6.985549927 0.0
        CHANNELS 3 Zrotation Yrotation Xrotation
        JOINT RightFoot
        {
          OFFSET -2.568259954 -7.056230068 0.0
          CHANNELS 3 Zrotation Yrotation Xrotation
          JOINT RightToeBase
          {
            OFFSET -0.164729998 -0.452589989 2.363149881
            CHANNELS 3 Zrotation Yrotation Xrotation
            End Site
            {
              OFFSET -0.0 -0.0 1.21081996
            }
          }
        }
      }
    }
  }
  JOINT LowerBack
  {
    OFFSET 0.0 0.0 0.0
    CHANNELS 3 Zrotation Yrotation Xrotation
    JOINT Spine
    {
      OFFSET 0.028270001 2.035589933 -0.193379998
      CHANNELS 3 Zrotation Yrotation Xrotation
      JOINT Spine1
      {
        OFFSET 0.05672 2.04885006 -0.042750001
        CHANNELS 3 Zrotation Yrotation Xrotation
        JOINT Neck
        {
          OFFSET 0.0 0.0 0.0
          CHANNELS 3 Zrotation Yrotation Xrotation
          JOINT Neck1
          {
            OFFSET -0.054170001 1.74624002 0.172020003
            CHANNELS 3 Zrotation Yrotation Xrotation
            JOINT Head
            {
              OFFSET 0.10407 1.761360049 -0.123970002
              CHANNELS 3 Zrotation Yrotation Xrotation
              End Site
              {
                OFFSET 0.0372 1.770439982 -0.062410001
              }
            }
          }
        }
        JOINT LeftShoulder
        {
          OFFSET 0.0 0.0 0.0
          CHANNELS 3 Zrotation Yrotation Xrotation
          JOINT LeftArm
          {
            OFFSET 3.362410069 1.200889945 -0.311210006
            CHANNELS 3 Zrotation Yrotation Xrotation
            JOINT LeftForeArm
            {
              OFFSET 4.982999802 -0.0 -0.0
              CHANNELS 3 Zrotation Yrotation Xrotation
              JOINT LeftHand
              {
                OFFSET 3.483560085 -0.0 -0.0
                CHANNELS 3 Zrotation Yrotation Xrotation
                JOINT LeftFingerBase
                {
                  OFFSET 0.0 0.0 0.0
                  CHANNELS 3 Zrotation Yrotation Xrotation
                  JOINT LeftHandIndex1
                  {
                    OFFSET 0.715260029 -0.0 -0.0
                    CHANNELS 3 Zrotation Yrotation Xrotation
                    End Site
                    {
                      OFFSET 0.576659977 -0.0 -0.0
                    }
                  }
                }
                JOINT LThumb
                {
                  OFFSET 0.0 0.0 0.0
                  CHANNELS 3 Zrotation Yrotation Xrotation
                  End Site
                  {
                    OFFSET 0.585470021 -0.0 0.585470021
                  }
                }
              }
            }
          }
        }
        JOINT RightShoulder
        {
          OFFSET 0.0 0.0 0.0
          CHANNELS 3 Zrotation Yrotation Xrotation
          JOINT RightArm
          {
            OFFSET -3.136600018 1.374050021 -0.404650003
            CHANNELS 3 Zrotation Yrotation Xrotation
            JOINT RightForeArm
            {
              OFFSET -5.241899967 -0.0 -0.0
              CHANNELS 3 Zrotation Yrotation Xrotation
              JOINT RightHand
              {
                OFFSET -3.444169998 -0.0 -0.0
                CHANNELS 3 Zrotation Yrotation Xrotation
                JOINT RightFingerBase
                {
                  OFFSET 0.0 0.0 0.0
                  CHANNELS 3 Zrotation Yrotation Xrotation
                  JOINT RightHandIndex1
                  {
                    OFFSET -0.622529984 -0.0 -0.0
                    CHANNELS 3 Zrotation Yrotation Xrotation
                    End Site
                    {
                      OFFSET -0.501900017 -0.0 -0.0
                    }
                  }
                }
                JOINT RThumb
                {
                  OFFSET 0.0 0.0 0.0
                  CHANNELS 3 Zrotation Yrotation Xrotation
                  End Site
                  {
                    OFFSET -0.509559989 -0.0 0.509559989
                  }
                }
              }
            }
          }
        }
      }
    }
  }
}
MOTION
Frames: 11
Frame Time: 0.0083333
32.815536499 18.155599594 14.937238693 -172.019897461 -0.542012334 179.586013794 0.0 -0.0 0.0 -4.907999992 -0.352700084 -12.447201729 2.357299089 9.573797226 27.607196808 0.512399971 -8.555800438 -13.223199844 0.061200015 -1.596200109 -4.391000748 0.0 -0.0 0.0 30.650112152 3.832801342 -4.877601147 -1.857200146 -8.561999321 24.434698105 -0.706499994 3.758099794 -15.051699638 -1.429699659 -7.560698509 21.387500763 7.562499046 1.677499652 -0.500099957 2.493099928 0.799299777 8.440698624 -1.551099896 0.500500083 9.382400513 -17.196601868 -0.94389993 2.148999929 10.594099998 -1.740799427 -14.184400558 6.275700569 -0.846200049 -4.335401058 0.0 -0.0 0.0 -93.117599487 0.745999396 9.905100822 32.926307678 -43.2733078 -13.371507645 0.0 -0.0 0.783899903 12.98900032 -11.541899681 -2.642500162 -7.125 0.0 0.0 -9.907198906 18.243600845 6.40419817 0.0 -0.0 0.0 82.905799866 28.008901596 30.386898041 -11.870499611 19.610206604 -2.058600664 0.0 -0.0 6.974700451 -0.92839998 -15.069299698 0.241399959 7.125 -0.0 0.0 24.122600555 -43.626899719 0.87150079 
32.815734863 18.150600433 14.90873909 -172.129699707 -0.080006503 179.464004517 0.0 -0.0 0.0 -5.049800396 -0.023999952 -12.264000893 2.359100342 9.577102661 27.617797852 0.523499906 -8.412599564 -13.313099861 0.070900001 -1.717300057 -4.724999905 0.0 -0.0 0.0 30.537004471 4.199800968 -4.61080122 -1.87199986 -8.59430027 24.534198761 -0.721600115 3.873099804 -15.205299377 -1.430300236 -7.561999798 21.391399384 7.280700684 1.906399727 -0.404800028 2.525299549 1.112499952 8.517399788 -1.333400011 0.627399981 9.424599648 -17.00860405 -1.117300153 1.838300347 10.365898132 -1.922000051 -13.616998672 6.151502132 -0.927399874 -4.090501308 0.0 -0.0 0.0 -92.947418213 0.576900363 10.56470108 33.433601379 -43.660701752 -13.720502853 0.0 -0.0 1.075799942 13.444399834 -11.592601776 -2.750300169 -7.125 0.0 0.0 -9.588500977 18.165197372 6.209000587 0.0 -0.0 0.0 82.995376587 28.533004761 24.915288925 -11.424097061 18.935394287 -1.911298871 0.0 -0.0 17.46159935 7.572199821 -9.156999588 -1.211899757 7.125 -0.0 0.0 28.812292099 -37.510593414 5.922105312 
32.826934814 18.139400482 14.873139381 -172.642807007 0.436997592 179.010971069 0.0 -0.0 0.0 -5.639698982 0.385000199 -11.750597954 2.375700235 9.608402252 27.717504501 0.545799911 -8.285400391 -13.531399727 0.0779 -1.800700188 -4.95510006 0.0 -0.0 0.0 30.003904343 4.347200394 -3.978399992 -1.872099638 -8.594398499 24.534397125 -0.743700027 4.043799877 -15.428002357 -1.436500311 -7.577701569 21.438501358 6.556500435 1.003099918 0.022200016 2.35400033 1.7845999 8.759200096 -0.944200039 1.661199808 9.368800163 -16.581798553 -1.283299685 1.814800262 9.986898422 -2.158999681 -13.527698517 5.959600449 -1.045899987 -4.038000107 0.0 -0.0 0.0 -92.795707703 0.380700052 11.261899948 33.838302612 -43.96459198 -14.000699043 0.0 -0.0 1.087900162 10.907001495 -14.361001968 -2.736300707 -7.125 0.0 0.0 -11.270100594 15.551696777 7.994199276 0.0 -0.0 0.0 83.051200867 28.887601852 21.274906158 -11.283301353 18.72120285 -1.865800261 0.0 -0.0 23.867204666 10.045399666 -4.157100201 -0.735699952 7.125 -0.0 0.0 28.992801666 -32.884399414 9.718100548 
32.82043457 18.13820076 14.889339447 -172.523605347 0.501992226 179.047958374 0.0 -0.0 0.0 -5.529299736 0.406999975 -11.866699219 2.395399809 9.64509964 27.835000992 0.551099956 -8.278000832 -13.587302208 0.061300013 -1.598100305 -4.396300793 0.0 -0.0 0.0 30.113805771 4.415400505 -4.001100063 -1.868000031 -8.585601807 24.507295609 -0.750500083 3.987800837 -15.505904198 -1.398399949 -7.480897903 21.148197174 6.540799141 1.129299879 -0.056600012 2.465199947 1.949800491 8.782501221 -0.797699988 1.74119997 9.448801041 -16.436002731 -1.344500184 1.780100226 9.865102768 -2.22440052 -13.247300148 5.888100624 -1.075199962 -3.941699743 0.0 -0.0 0.0 -92.621276855 0.216698095 11.929096222 34.177703857 -44.215896606 -14.236803055 0.0 -0.0 1.069700003 12.479701042 -13.183502197 -2.889700651 -7.125 0.0 0.0 -10.223200798 16.623603821 6.984301567 0.0 -0.0 0.0 83.083297729 28.995502472 19.927204132 -11.407999992 18.910900116 -1.906100512 0.0 -0.0 26.30919838 8.269300461 -1.366200089 -0.198500022 7.125 -0.0 0.0 26.91799736 -30.498096466 10.615299225 
32.826934814 18.142900467 14.872838974 -171.970504761 0.334000856 179.469955444 0.0 -0.0 0.0 -4.948599339 0.238999799 -12.470499039 2.414200068 9.680100441 27.946998596 0.511500001 -8.519001007 -13.205199242 0.035900004 -1.223799944 -3.364799976 0.0 -0.0 0.0 30.642900467 4.505800724 -4.499100685 -1.863299727 -8.575398445 24.475799561 -0.740999937 3.838699102 -15.418595314 -1.349300027 -7.353800774 20.767700195 7.059699059 1.200699925 -0.579899967 2.660599232 1.951600432 8.689200401 -0.857399881 1.771399617 9.676797867 -16.008403778 -1.385300398 2.146200657 9.471500397 -2.35130024 -13.4477005 5.704599857 -1.139499903 -4.059700489 0.0 -0.0 0.0 -92.420089722 0.173998907 13.42029953 34.697200775 -44.59469986 -14.600296021 0.0 -0.0 2.636499882 13.967199326 -11.943498611 -2.946499586 -7.125 0.0 0.0 -9.21780014 17.777101517 6.042301178 0.0 -0.0 0.0 83.030685425 29.074001312 20.874191284 -11.520501137 19.081600189 -1.942700267 0.0 -0.0 25.081100464 10.48529911 -3.302099705 -0.610800028 7.125 -0.0 0.0 29.046104431 -32.093109131 10.385296822 
32.828784943 18.140499115 14.875888824 -171.883010864 0.455001712 179.53302002 0.0 -0.0 0.0 -4.89179945 0.282499909 -12.621700287 2.436700583 9.722002029 28.081001282 0.536900103 -8.29720211 -13.436203003 0.1118 -2.156100035 -5.937198639 0.0 -0.0 0.0 30.673099518 4.481500626 -4.573199749 -1.853499889 -8.554000854 24.409898758 -0.729100168 3.869700432 -15.287096024 -1.344499469 -7.341096878 20.72990036 7.061899185 1.344499707 -0.752699912 2.756100178 2.129400015 8.730097771 -0.728599906 1.860899806 9.83619976 -15.732201576 -1.524399996 2.312100172 9.197602272 -2.565400362 -13.339901924 5.575201511 -1.243299842 -4.035900593 0.0 -0.0 0.0 -92.19229126 0.049599562 14.199699402 35.02199173 -44.827796936 -14.828899384 0.0 -0.0 2.571899891 13.754101753 -12.046099663 -2.924400806 -7.125 0.0 0.0 -9.364198685 17.68689537 6.159698963 0.0 -0.0 0.0 82.975097656 29.043296814 22.983398438 -11.70459938 19.360198975 -2.003299952 0.0 -0.0 21.662900925 9.854000092 -6.099500179 -1.057400227 7.125 -0.0 0.0 29.475296021 -34.621997833 8.482295036 
32.826885223 18.137899399 14.880191803 -172.095306396 0.919986248 179.437988281 0.0 -0.0 0.0 -5.224999428 0.121399716 -12.305603027 2.451899529 9.749897957 28.170597076 0.56189996 -7.917598724 -13.636399269 0.035700005 -1.220100045 -3.354600191 0.0 -0.0 0.0 30.359802246 4.516900539 -4.404600143 -1.845199585 -8.535800934 24.353801727 -0.716199994 3.950099468 -15.140096664 -1.214099526 -6.989598274 19.684595108 6.661899567 1.614200115 -0.673999965 2.799399614 2.527600288 8.800300598 -0.422300011 2.026299953 9.870798111 -15.477198601 -1.655199885 2.462300062 9.017399788 -2.756299734 -13.256299019 5.479799747 -1.339000106 -4.017900467 0.0 -0.0 0.0 -92.00769043 0.075398482 14.998398781 35.429294586 -45.116298676 -15.11669445 0.0 -0.0 2.469099998 15.549996376 -11.643299103 -3.214298725 -7.125 0.0 0.0 -8.118200302 17.977798462 5.269499779 0.0 -0.0 0.0 82.928985596 28.748508453 25.703285217 -12.089501381 19.93870163 -2.132700443 0.0 -0.0 16.74379921 6.774199963 -9.305500031 -1.100400209 7.125 -0.0 0.0 28.250099182 -37.710098267 5.624303341 
32.831382751 18.140100479 14.887290955 -172.038299561 1.418999791 179.580993652 0.0 -0.0 0.0 -5.310899734 -0.568500102 -12.005999565 2.460100412 9.764903069 28.218799591 0.635800004 -6.799099922 -14.283399582 0.035299994 -1.213499904 -3.336399555 0.0 -0.0 0.0 30.310997009 4.703400135 -4.530499935 -1.854700089 -8.556501389 24.417705536 -0.718299985 3.603099346 -15.196298599 -0.650400043 -5.15860033 14.36150074 6.555099964 1.907699823 -0.843900144 2.890600443 2.905200243 8.794000626 -0.219000041 2.196199894 9.979200363 -15.237001419 -1.665100217 2.422299862 8.806600571 -2.744099617 -12.817403793 5.35860157 -1.327900529 -3.886600018 0.0 -0.0 0.0 -91.808692932 0.092200764 15.663900375 35.775211334 -45.357814789 -15.362306595 0.0 -0.0 2.036300182 12.952899933 -13.399902344 -3.051100016 -7.125 0.0 0.0 -9.895399094 16.373697281 6.807898998 0.0 -0.0 0.0 82.84690094 28.270198822 28.934804916 -12.670501709 20.802501678 -2.335000992 0.0 -0.0 10.681799889 2.664299726 -13.46780014 -0.620899856 7.125 -0.0 0.0 26.5090065 -41.801902771 2.270196438 
32.821685791 18.143699646 14.892189026 -171.969512939 1.686990499 179.578964233 0.0 -0.0 0.0 -5.247399807 0.071400099 -12.198801041 2.468500137 9.780298233 28.268196106 0.620000005 -7.155999184 -14.152997971 0.040500004 -1.299600124 -3.573600054 0.0 -0.0 0.0 30.334608078 4.742499828 -4.528299332 -1.861099958 -8.570501328 24.460899353 -0.687700093 4.572299957 -14.786699295 -1.271399975 -7.146499634 20.150100708 6.493700504 2.076699734 -0.966700137 2.97510004 3.131799936 8.877402306 -0.057299986 2.306900501 10.151902199 -14.855000496 -1.858700275 2.437400103 8.527999878 -3.009000301 -12.714999199 5.210599899 -1.462600112 -3.836900711 0.0 -0.0 0.0 -91.615791321 0.038798895 16.324897766 35.957298279 -45.483695984 -15.491999626 0.0 -0.0 2.246299982 14.677998543 -12.962698936 -3.362599611 -7.125 0.0 0.0 -8.714702606 16.693105698 5.913600922 0.0 -0.0 0.0 82.750816345 27.849197388 32.113807678 -13.364801407 21.819503784 -2.587300777 0.0 -0.0 4.445799828 -2.363100052 -18.090805054 0.734200001 7.125 -0.0 0.0 24.141004562 -46.553798676 -0.982005656 
32.813987732 18.13299942 14.895290375 -172.129501343 1.873987556 179.322036743 0.0 -0.0 0.0 -5.493900299 -0.255299896 -11.768997192 2.485500097 9.811498642 28.368299484 0.658199966 -6.655900002 -14.511698723 0.036600001 -1.235700011 -3.397500038 0.0 -0.0 0.0 30.164901733 4.759600163 -4.215799332 -1.860800266 -8.569999695 24.459197998 -0.726599991 3.590899944 -15.288396835 -0.494799942 -4.509901047 12.515800476 6.128901005 2.219700575 -0.782700121 3.044698954 3.38560009 9.037998199 0.244299963 2.414599657 10.205301285 -14.638101578 -1.9447999 2.179400206 8.299200058 -3.075400829 -12.140702248 5.083100796 -1.489800096 -3.620399475 0.0 -0.0 0.0 -91.421096802 -0.032401569 17.070199966 36.321609497 -45.733104706 -15.752306938 0.0 -0.0 2.063699961 14.301099777 -13.028199196 -3.28889966 -7.125 0.0 0.0 -8.973999977 16.653902054 6.101699829 0.0 -0.0 0.0 82.602203369 27.626005173 34.662204742 -13.942803383 22.65290451 -2.806100607 0.0 0.0 -1.232499957 -8.147500992 -22.320100784 3.112200499 7.125 -0.0 0.0 20.863306046 -51.293903351 -3.358200788 
32.804985046 18.299800873 14.900390625 -169.477005005 -7.100998402 177.420974731 0.0 -0.0 0.0 3.433596849 0.11290139 -68.963928223 24.619400024 19.480501175 103.619407654 -1.384199381 -31.51830101 -14.469000816 0.045800012 -1.380800128 -3.797399998 0.0 -0.0 0.0 36.099197388 -3.569799662 -1.323799968 -0.94780004 -6.200100899 17.366199493 0.189799935 -11.959501266 5.400499821 -9.357798576 -17.032598495 57.319595337 7.076200485 -3.66059947 25.491996765 4.842399597 -6.29779911 11.318699837 2.916399717 -4.381399155 -1.452099919 -24.965400696 -4.974299908 -15.093799591 8.253199577 1.152600408 36.619697571 8.400698662 -0.918300033 15.677999496 0.0 -0.0 0.0 4.367016315 -74.797698975 -44.770812988 23.407304764 -34.531204224 -7.367899418 0.0 -0.0 22.17029953 25.623697281 -13.63189888 -6.449398041 -7.125 0.0 0.0 -1.210699677 14.927700043 0.858200133 0.0 -0.0 0.0 81.598297119 55.434089661 59.311103821 -39.131500244 47.546798706 -17.795698166 0.0 -0.0 19.397600174 -35.98519516 -9.941698074 7.145698071 7.125 -0.0 0.0 -8.088198662 -42.062400818 -0.590400755 
